<svg width="60" height="60" viewBox="0 0 60 60" fill="none" xmlns="http://www.w3.org/2000/svg">
<path d="M9.06602 9.06365C-1.97773 20.1074 -1.97773 38.0174 9.06602 49.063C20.1098 60.1087 38.016 60.103 49.0598 49.0593C60.1035 38.0155 60.1091 20.1093 49.0635 9.06553C38.0198 -1.97822 20.1135 -1.97822 9.06602 9.06553V9.06365ZM47.7379 10.3912C49.2552 11.9282 50.5794 13.6446 51.681 15.5024L44.031 23.1524C43.2258 21.1011 42.0053 19.2384 40.446 17.6812C38.8881 16.1205 37.024 14.8992 34.971 14.0943L42.621 6.44428C44.4817 7.54636 46.2007 8.87182 47.7398 10.3912H47.7379ZM19.0129 39.1162C16.3477 36.4489 14.8503 32.8328 14.8495 29.0622C14.8488 25.2917 16.3449 21.675 19.0091 19.0068C21.6778 16.3439 25.2938 14.8484 29.0638 14.8484C32.8338 14.8484 36.4498 16.3439 39.1185 19.0068C41.7794 21.6761 43.2736 25.2915 43.2736 29.0605C43.2736 32.8296 41.7794 36.4449 39.1185 39.1143C36.4509 41.778 32.8354 43.2744 29.0655 43.2751C25.2957 43.2758 21.6796 41.7807 19.011 39.118L19.0129 39.1162ZM10.3898 47.7374C8.871 46.1979 7.5456 44.479 6.44289 42.6187L14.0929 34.9687C14.9022 37.0187 16.1239 38.8807 17.6824 40.4392C19.2408 41.9976 21.1028 43.2194 23.1529 44.0287L15.4991 51.6787C13.6804 50.5912 11.9554 49.2974 10.3879 47.7355L10.3898 47.7374ZM15.5048 6.43865L23.1585 14.0924C21.1072 14.899 19.2441 16.1196 17.6853 17.6781C16.1265 19.2365 14.9056 21.0994 14.0985 23.1505L6.44477 15.5005C7.53227 13.6818 8.82602 11.9568 10.3916 10.3855C11.9302 8.86727 13.6478 7.54191 15.5066 6.43865H15.5048ZM42.6248 51.6787L34.971 44.0249C37.0227 43.2194 38.8861 41.9994 40.445 40.4412C42.0039 38.8829 43.2246 37.02 44.031 34.9687L51.6848 42.6187C50.5973 44.4374 49.3035 46.1662 47.7379 47.7374C46.1992 49.2545 44.4816 50.5786 42.6229 51.6805L42.6248 51.6787Z" fill="white"/>
</svg>
