<svg width="60" height="60" viewBox="0 0 60 60" fill="none" xmlns="http://www.w3.org/2000/svg">
<path d="M53.2077 20.6892L38.3308 18.5271L31.6804 5.0447C31.4987 4.67556 31.1999 4.37673 30.8308 4.19509C29.905 3.73806 28.78 4.11892 28.3171 5.0447L21.6667 18.5271L6.78975 20.6892C6.3796 20.7478 6.0046 20.9412 5.71749 21.2342C5.37039 21.5909 5.17912 22.0709 5.18571 22.5686C5.1923 23.0663 5.39622 23.541 5.75264 23.8885L16.5163 34.3826L13.9733 49.201C13.9137 49.5457 13.9519 49.9002 14.0835 50.2243C14.2151 50.5484 14.4348 50.8292 14.7179 51.0348C15.0009 51.2404 15.3359 51.3625 15.6849 51.3874C16.0338 51.4123 16.3827 51.3389 16.6921 51.1756L29.9987 44.1795L43.3054 51.1756C43.6687 51.3689 44.0905 51.4334 44.4948 51.3631C45.5144 51.1873 46.1999 50.2205 46.0241 49.201L43.4812 34.3826L54.2448 23.8885C54.5378 23.6013 54.7312 23.2263 54.7898 22.8162C54.948 21.7908 54.2331 20.8416 53.2077 20.6892ZM38.9519 32.906L41.0671 45.2283L29.9987 39.4158L18.9304 45.2342L21.0456 32.9119L12.0925 24.1814L24.4675 22.3826L29.9987 11.1736L35.53 22.3826L47.905 24.1814L38.9519 32.906Z" fill="white"/>
</svg>
