<svg width="32" height="32" viewBox="0 0 32 32" fill="none" xmlns="http://www.w3.org/2000/svg">
<path d="M20.7996 15.9999C20.7996 17.2729 20.2939 18.4938 19.3938 19.394C18.4936 20.2942 17.2727 20.7999 15.9996 20.7999C14.7266 20.7999 13.5057 20.2942 12.6055 19.394C11.7054 18.4938 11.1996 17.2729 11.1996 15.9999C11.1996 15.7263 11.2284 15.4591 11.278 15.1999H9.59965V21.5951C9.59965 22.0399 9.95965 22.3999 10.4044 22.3999H21.5964C21.8096 22.3995 22.0139 22.3145 22.1645 22.1636C22.3151 22.0127 22.3996 21.8083 22.3996 21.5951V15.1999H20.7212C20.7708 15.4591 20.7996 15.7263 20.7996 15.9999V15.9999ZM15.9996 19.1999C16.42 19.1998 16.8362 19.1169 17.2245 18.9559C17.6128 18.795 17.9656 18.5591 18.2627 18.2618C18.5599 17.9645 18.7956 17.6116 18.9563 17.2232C19.1171 16.8349 19.1998 16.4186 19.1996 15.9983C19.1995 15.578 19.1166 15.1618 18.9557 14.7735C18.7947 14.3852 18.5589 14.0324 18.2616 13.7352C17.9643 13.4381 17.6114 13.2024 17.223 13.0416C16.8346 12.8809 16.4184 12.7982 15.998 12.7983C15.1491 12.7985 14.3351 13.1359 13.735 13.7364C13.1349 14.3368 12.7978 15.151 12.798 15.9999C12.7983 16.8488 13.1357 17.6628 13.7361 18.263C14.3365 18.8631 15.1507 19.2001 15.9996 19.1999V19.1999ZM19.8396 12.6399H21.758C21.8855 12.6399 22.0078 12.5894 22.098 12.4994C22.1883 12.4094 22.2392 12.2873 22.2396 12.1599V10.2415C22.2396 10.1138 22.1889 9.99127 22.0986 9.90095C22.0083 9.81063 21.8858 9.75989 21.758 9.75989H19.8396C19.7119 9.75989 19.5894 9.81063 19.4991 9.90095C19.4088 9.99127 19.358 10.1138 19.358 10.2415V12.1599C19.3596 12.4239 19.5756 12.6399 19.8396 12.6399V12.6399ZM15.9996 0.639893C11.9259 0.639893 8.01905 2.25817 5.13849 5.13873C2.25793 8.01929 0.639648 11.9262 0.639648 15.9999C0.639648 20.0736 2.25793 23.9805 5.13849 26.8611C8.01905 29.7416 11.9259 31.3599 15.9996 31.3599C18.0168 31.3599 20.0141 30.9626 21.8777 30.1907C23.7412 29.4188 25.4345 28.2874 26.8608 26.8611C28.2871 25.4347 29.4185 23.7415 30.1904 21.8779C30.9623 20.0143 31.3596 18.017 31.3596 15.9999C31.3596 13.9828 30.9623 11.9854 30.1904 10.1219C29.4185 8.25831 28.2871 6.56504 26.8608 5.13873C25.4345 3.71242 23.7412 2.58102 21.8777 1.8091C20.0141 1.03719 18.0168 0.639893 15.9996 0.639893V0.639893ZM23.9996 22.2223C23.9996 23.1999 23.1996 23.9999 22.222 23.9999H9.77725C8.79965 23.9999 7.99965 23.1999 7.99965 22.2223V9.77749C7.99965 8.79989 8.79965 7.99989 9.77725 7.99989H22.222C23.1996 7.99989 23.9996 8.79989 23.9996 9.77749V22.2223V22.2223Z" fill="white"/>
</svg>
