<svg width="48" height="48" viewBox="0 0 48 48" fill="none" xmlns="http://www.w3.org/2000/svg">
<path d="M44.0004 33.84V39.84C44.0026 40.397 43.8885 40.9483 43.6654 41.4586C43.4422 41.969 43.115 42.4271 42.7045 42.8037C42.2941 43.1802 41.8095 43.4669 41.2819 43.6454C40.7542 43.8238 40.1951 43.8901 39.6404 43.84C33.486 43.1712 27.5744 41.0682 22.3804 37.7C17.548 34.6293 13.451 30.5323 10.3804 25.7C7.00031 20.4824 4.89684 14.5419 4.24035 8.35995C4.19038 7.80688 4.2561 7.24947 4.43336 6.7232C4.61061 6.19693 4.8955 5.71333 5.26989 5.30319C5.64428 4.89306 6.09996 4.56537 6.60794 4.34099C7.11591 4.11662 7.66504 4.00047 8.22036 3.99995H14.2204C15.191 3.9904 16.1319 4.33411 16.8679 4.96702C17.6038 5.59992 18.0845 6.47884 18.2204 7.43995C18.4736 9.36008 18.9433 11.2454 19.6204 13.06C19.8894 13.7758 19.9477 14.5538 19.7882 15.3017C19.6287 16.0496 19.2581 16.7362 18.7204 17.28L16.1804 19.82C19.0275 24.827 23.1733 28.9728 28.1804 31.82L30.7204 29.28C31.2641 28.7422 31.9507 28.3717 32.6986 28.2121C33.4465 28.0526 34.2245 28.1109 34.9404 28.38C36.7549 29.0571 38.6402 29.5267 40.5604 29.78C41.5319 29.917 42.4192 30.4064 43.0534 31.1549C43.6877 31.9035 44.0247 32.8591 44.0004 33.84Z" stroke="black" stroke-width="4" stroke-linecap="round" stroke-linejoin="round"/>
</svg>
