<svg width="101" height="28" viewBox="0 0 101 28" fill="none" xmlns="http://www.w3.org/2000/svg">
<path d="M20.5996 18.668C20.3418 21.3984 19.334 23.5312 17.5762 25.0664C15.8184 26.5898 13.4805 27.3516 10.5625 27.3516C8.52344 27.3516 6.72461 26.8711 5.16602 25.9102C3.61914 24.9375 2.42383 23.5605 1.58008 21.7793C0.736328 19.998 0.296875 17.9297 0.261719 15.5742V13.1836C0.261719 10.7695 0.689453 8.64258 1.54492 6.80273C2.40039 4.96289 3.625 3.54492 5.21875 2.54883C6.82422 1.55273 8.67578 1.05469 10.7734 1.05469C13.5977 1.05469 15.8711 1.82227 17.5938 3.35742C19.3164 4.89258 20.3184 7.06055 20.5996 9.86133H16.1699C15.959 8.02148 15.4199 6.69727 14.5527 5.88867C13.6973 5.06836 12.4375 4.6582 10.7734 4.6582C8.83984 4.6582 7.35156 5.36719 6.30859 6.78516C5.27734 8.19141 4.75 10.2598 4.72656 12.9902V15.2578C4.72656 18.0234 5.21875 20.1328 6.20312 21.5859C7.19922 23.0391 8.65234 23.7656 10.5625 23.7656C12.3086 23.7656 13.6211 23.373 14.5 22.5879C15.3789 21.8027 15.9355 20.4961 16.1699 18.668H20.5996ZM28.3867 10.0547C29.7812 8.4375 31.5449 7.62891 33.6777 7.62891C37.7324 7.62891 39.7891 9.94336 39.8477 14.5723V27H35.5762V14.7305C35.5762 13.418 35.2891 12.4922 34.7148 11.9531C34.1523 11.4023 33.3203 11.127 32.2188 11.127C30.5078 11.127 29.2305 11.8887 28.3867 13.4121V27H24.1152V0H28.3867V10.0547ZM48.7246 27H44.4531V7.98047H48.7246V27ZM44.1895 3.04102C44.1895 2.38477 44.3945 1.83984 44.8047 1.40625C45.2266 0.972656 45.8242 0.755859 46.5977 0.755859C47.3711 0.755859 47.9688 0.972656 48.3906 1.40625C48.8125 1.83984 49.0234 2.38477 49.0234 3.04102C49.0234 3.68555 48.8125 4.22461 48.3906 4.6582C47.9688 5.08008 47.3711 5.29102 46.5977 5.29102C45.8242 5.29102 45.2266 5.08008 44.8047 4.6582C44.3945 4.22461 44.1895 3.68555 44.1895 3.04102ZM57.4082 7.98047L57.5312 9.9668C58.8672 8.4082 60.6953 7.62891 63.0156 7.62891C65.5586 7.62891 67.2988 8.60156 68.2363 10.5469C69.6191 8.60156 71.5645 7.62891 74.0723 7.62891C76.1699 7.62891 77.7285 8.20898 78.748 9.36914C79.7793 10.5293 80.3066 12.2402 80.3301 14.502V27H76.0586V14.625C76.0586 13.418 75.7949 12.5332 75.2676 11.9707C74.7402 11.4082 73.8672 11.127 72.6484 11.127C71.6758 11.127 70.8789 11.3906 70.2578 11.918C69.6484 12.4336 69.2207 13.1133 68.9746 13.957L68.9922 27H64.7207V14.4844C64.6621 12.2461 63.5195 11.127 61.293 11.127C59.582 11.127 58.3691 11.8242 57.6543 13.2188V27H53.3828V7.98047H57.4082ZM96.2383 25.1367C94.9844 26.6133 93.2031 27.3516 90.8945 27.3516C88.832 27.3516 87.2676 26.748 86.2012 25.541C85.1465 24.334 84.6191 22.5879 84.6191 20.3027V7.98047H88.8906V20.25C88.8906 22.6641 89.8926 23.8711 91.8965 23.8711C93.9707 23.8711 95.3711 23.127 96.0977 21.6387V7.98047H100.369V27H96.3438L96.2383 25.1367Z" fill="black"/>
</svg>
