<svg width="16" height="24" viewBox="0 0 16 24" fill="none" xmlns="http://www.w3.org/2000/svg">
<path d="M13.4145 15.9312C13.1197 15.2331 12.692 14.5989 12.1551 14.0641C11.6198 13.5277 10.9858 13.1 10.2879 12.8047C10.2817 12.8016 10.2754 12.8 10.2692 12.7969C11.2426 12.0938 11.8754 10.9484 11.8754 9.65625C11.8754 7.51562 10.141 5.78125 8.00041 5.78125C5.85978 5.78125 4.12541 7.51562 4.12541 9.65625C4.12541 10.9484 4.75822 12.0937 5.73166 12.7984C5.72541 12.8016 5.71916 12.8031 5.71291 12.8062C5.01291 13.1016 4.38478 13.525 3.84572 14.0656C3.30933 14.6009 2.88166 15.235 2.58634 15.9328C2.29622 16.616 2.13975 17.3485 2.12541 18.0906C2.12499 18.1073 2.12791 18.1239 2.13401 18.1394C2.1401 18.1549 2.14924 18.1691 2.16089 18.181C2.17254 18.193 2.18646 18.2025 2.20184 18.2089C2.21721 18.2154 2.23372 18.2188 2.25041 18.2188H3.18791C3.25666 18.2188 3.31134 18.1641 3.31291 18.0969C3.34416 16.8906 3.82853 15.7609 4.68478 14.9047C5.57072 14.0188 6.74728 13.5312 8.00041 13.5312C9.25353 13.5312 10.4301 14.0188 11.316 14.9047C12.1723 15.7609 12.6567 16.8906 12.6879 18.0969C12.6895 18.1656 12.7442 18.2188 12.8129 18.2188H13.7504C13.7671 18.2188 13.7836 18.2154 13.799 18.2089C13.8143 18.2025 13.8283 18.193 13.8399 18.181C13.8516 18.1691 13.8607 18.1549 13.8668 18.1394C13.8729 18.1239 13.8758 18.1073 13.8754 18.0906C13.8598 17.3437 13.7051 16.6172 13.4145 15.9312V15.9312ZM8.00041 12.3438C7.28322 12.3438 6.60822 12.0641 6.10041 11.5563C5.59259 11.0484 5.31291 10.3734 5.31291 9.65625C5.31291 8.93906 5.59259 8.26406 6.10041 7.75625C6.60822 7.24844 7.28322 6.96875 8.00041 6.96875C8.71759 6.96875 9.39259 7.24844 9.90041 7.75625C10.4082 8.26406 10.6879 8.93906 10.6879 9.65625C10.6879 10.3734 10.4082 11.0484 9.90041 11.5563C9.39259 12.0641 8.71759 12.3438 8.00041 12.3438Z" fill="white"/>
</svg>
