<svg width="32" height="32" viewBox="0 0 32 32" fill="none" xmlns="http://www.w3.org/2000/svg">
<path d="M16 0.5C7.437 0.5 0.5 7.438 0.5 16C0.5 24.562 7.438 31.5 16 31.5C24.563 31.5 31.5 24.562 31.5 16C31.5 7.438 24.562 0.5 16 0.5ZM23.613 11.119L21.069 23.107C20.881 23.957 20.375 24.163 19.669 23.763L15.794 20.907L13.925 22.707C13.719 22.913 13.544 23.088 13.144 23.088L13.419 19.144L20.6 12.656C20.913 12.381 20.531 12.225 20.118 12.5L11.243 18.087L7.418 16.893C6.587 16.631 6.568 16.062 7.593 15.662L22.537 9.899C23.231 9.649 23.837 10.068 23.612 11.118L23.613 11.119Z" fill="white"/>
</svg>
