<?xml version="1.0" encoding="utf-8"?>
<!-- Generator: Adobe Illustrator 16.0.3, SVG Export Plug-In . SVG Version: 6.00 Build 0)  -->
<!DOCTYPE svg PUBLIC "-//W3C//DTD SVG 1.1//EN" "http://www.w3.org/Graphics/SVG/1.1/DTD/svg11.dtd">
<svg version="1.1" id="Vrstva_1" xmlns="http://www.w3.org/2000/svg" xmlns:xlink="http://www.w3.org/1999/xlink" x="0px" y="0px"
	 width="217.742px" height="108.871px" viewBox="187.785 118.638 217.742 108.871"
	 enable-background="new 187.785 118.638 217.742 108.871" xml:space="preserve">
<path fill="#FFFFFF" d="M394.564,221.777v-2.303h3.334c0.426,0,0.744,0.098,0.963,0.295c0.217,0.194,0.324,0.479,0.324,0.854
	s-0.107,0.66-0.324,0.857c-0.219,0.195-0.537,0.295-0.963,0.295L394.564,221.777L394.564,221.777z M394.564,218.523v-1.846h3.049
	c0.506,0,0.855,0.073,1.053,0.227c0.195,0.153,0.293,0.383,0.293,0.695c0,0.312-0.098,0.545-0.293,0.694
	c-0.195,0.152-0.547,0.229-1.053,0.229H394.564z M393.439,222.248c0,0.099-0.021,0.176-0.066,0.234
	c-0.045,0.057-0.129,0.086-0.252,0.086v0.16h4.488c0.932,0,1.602-0.181,2.01-0.533c0.41-0.355,0.613-0.857,0.613-1.506
	c0-0.437-0.104-0.805-0.307-1.111c-0.205-0.306-0.496-0.504-0.877-0.592v-0.027c0.371-0.098,0.629-0.272,0.773-0.524
	s0.219-0.554,0.219-0.898c0-0.258-0.043-0.494-0.127-0.711s-0.219-0.408-0.406-0.572c-0.186-0.166-0.428-0.293-0.725-0.386
	s-0.658-0.14-1.084-0.14h-4.58v0.16c0.125,0,0.209,0.027,0.254,0.086c0.043,0.057,0.064,0.135,0.064,0.231v6.043H393.439z
	 M382.167,220.169c0,0.533,0.078,0.97,0.234,1.306c0.152,0.338,0.377,0.604,0.664,0.799c0.289,0.195,0.641,0.326,1.059,0.393
	s0.887,0.101,1.412,0.101c0.521,0,0.994-0.033,1.41-0.101c0.418-0.066,0.77-0.196,1.059-0.393c0.287-0.196,0.51-0.461,0.664-0.799
	c0.156-0.336,0.234-0.771,0.234-1.306v-3.965c0-0.098,0.02-0.176,0.064-0.231c0.045-0.059,0.129-0.086,0.254-0.086v-0.16h-1.762
	v0.16c0.125,0,0.209,0.027,0.252,0.086c0.045,0.057,0.068,0.135,0.068,0.232v4.264c0,0.506-0.189,0.86-0.566,1.069
	c-0.375,0.209-0.936,0.314-1.68,0.314s-1.305-0.105-1.68-0.314c-0.377-0.209-0.566-0.563-0.566-1.069v-4.264
	c0-0.099,0.023-0.177,0.068-0.232c0.043-0.059,0.129-0.086,0.252-0.086v-0.16h-1.764v0.16c0.125,0,0.209,0.027,0.254,0.086
	c0.045,0.057,0.066,0.135,0.066,0.231v3.965H382.167z M374.083,215.726h-1.762v0.16c0.125,0,0.209,0.027,0.254,0.086
	c0.043,0.057,0.064,0.135,0.064,0.231v6.043c0,0.099-0.021,0.176-0.064,0.234c-0.045,0.057-0.129,0.086-0.254,0.086v0.16h5.918
	c0.309,0,0.465,0.082,0.465,0.246h0.16v-1.521h-0.16c0,0.269-0.156,0.4-0.465,0.4h-4.477v-5.595c0-0.125,0.021-0.219,0.066-0.281
	s0.129-0.092,0.254-0.092V215.726L374.083,215.726z M368.535,221.65l-0.986-1.279l-0.174,0.107c0.045,0.045,0.066,0.106,0.066,0.188
	c0,0.088-0.066,0.201-0.199,0.338c-0.133,0.14-0.313,0.273-0.533,0.406c-0.221,0.135-0.477,0.248-0.766,0.34
	c-0.289,0.095-0.594,0.142-0.912,0.142c-0.408,0-0.807-0.066-1.191-0.199c-0.387-0.133-0.73-0.32-1.033-0.56
	s-0.543-0.524-0.725-0.856s-0.273-0.699-0.273-1.098c0-0.462,0.09-0.857,0.268-1.191c0.178-0.332,0.406-0.605,0.686-0.818
	c0.279-0.211,0.6-0.369,0.959-0.471s0.717-0.154,1.072-0.154s0.688,0.039,0.998,0.113c0.313,0.076,0.582,0.166,0.813,0.268
	c0.23,0.103,0.412,0.21,0.547,0.318c0.133,0.113,0.199,0.203,0.199,0.273c0,0.071-0.021,0.129-0.066,0.174l0.174,0.08l0.826-1.426
	l-0.16-0.109c-0.027,0.037-0.049,0.063-0.066,0.088c-0.018,0.023-0.063,0.033-0.133,0.033c-0.063,0-0.176-0.037-0.34-0.113
	c-0.164-0.077-0.375-0.16-0.633-0.249c-0.258-0.09-0.561-0.174-0.906-0.249c-0.346-0.076-0.742-0.114-1.184-0.114
	c-0.643,0-1.217,0.095-1.727,0.28c-0.512,0.188-0.943,0.439-1.305,0.753c-0.357,0.316-0.631,0.679-0.822,1.086
	c-0.188,0.41-0.283,0.843-0.283,1.295c0,0.543,0.104,1.043,0.305,1.5c0.203,0.457,0.488,0.854,0.854,1.188
	c0.369,0.334,0.811,0.588,1.324,0.766c0.516,0.181,1.084,0.269,1.705,0.269c0.559,0,1.035-0.056,1.426-0.16
	c0.391-0.109,0.711-0.232,0.965-0.371c0.252-0.139,0.449-0.266,0.586-0.383c0.139-0.115,0.229-0.174,0.273-0.174
	c0.08,0,0.146,0.03,0.199,0.094L368.535,221.65z M343.791,222.248c0,0.099-0.021,0.176-0.066,0.234
	c-0.045,0.057-0.129,0.086-0.254,0.086v0.16h5.973c0.311,0,0.467,0.082,0.467,0.246h0.16V221.4h-0.16
	c0,0.168-0.045,0.285-0.133,0.352c-0.092,0.066-0.229,0.103-0.414,0.103h-4.447v-2.267h2.73c0.186,0,0.318,0.027,0.398,0.08
	c0.08,0.056,0.119,0.146,0.119,0.279h0.16v-1.607h-0.16c0,0.144-0.051,0.24-0.152,0.296c-0.104,0.053-0.232,0.077-0.393,0.077
	h-2.705v-2.11h4.156c0.203,0,0.342,0.033,0.412,0.1s0.105,0.158,0.105,0.273h0.16v-1.516h-0.16c0,0.098-0.031,0.166-0.092,0.206
	c-0.064,0.04-0.209,0.062-0.441,0.062h-5.584v0.16c0.125,0,0.209,0.027,0.254,0.086c0.045,0.057,0.066,0.135,0.066,0.231V222.248
	L343.791,222.248z M337.968,220.974l-4.182-4.77c-0.027-0.025-0.051-0.056-0.072-0.087s-0.033-0.061-0.033-0.088
	c0-0.053,0.018-0.09,0.055-0.112c0.033-0.021,0.102-0.031,0.197-0.031v-0.16h-2.25v0.16c0.123,0,0.207,0.027,0.252,0.086
	c0.047,0.057,0.068,0.135,0.068,0.231v6.043c0,0.099-0.021,0.176-0.068,0.234c-0.045,0.057-0.129,0.086-0.252,0.086v0.16h1.592
	v-0.16c-0.125,0-0.209-0.029-0.254-0.086c-0.045-0.06-0.066-0.137-0.066-0.234v-5.43l4.742,5.391
	c0.018,0.027,0.043,0.062,0.08,0.101c0.033,0.041,0.053,0.092,0.053,0.151c0,0.072-0.088,0.107-0.268,0.107v0.16h1.705v-0.16
	c-0.125,0-0.209-0.029-0.254-0.086c-0.045-0.06-0.064-0.137-0.064-0.234v-6.043c0-0.098,0.02-0.176,0.064-0.231
	c0.045-0.059,0.129-0.086,0.254-0.086v-0.16h-1.592v0.16c0.125,0,0.209,0.027,0.254,0.086c0.045,0.057,0.066,0.135,0.066,0.232v4.77
	H337.968z M325.669,222.728h1.762v-0.16c-0.125,0-0.209-0.029-0.254-0.086c-0.045-0.06-0.064-0.137-0.064-0.234v-6.043
	c0-0.098,0.02-0.176,0.064-0.231c0.045-0.059,0.129-0.086,0.254-0.086v-0.16h-1.762v0.16c0.123,0,0.207,0.027,0.252,0.086
	c0.045,0.057,0.066,0.135,0.066,0.231v6.043c0,0.099-0.021,0.176-0.066,0.234c-0.045,0.057-0.129,0.086-0.252,0.086V222.728z
	 M313.064,222.728h1.891v-0.16c-0.178,0-0.27-0.045-0.27-0.133c0-0.063,0.012-0.119,0.027-0.166c0.02-0.049,0.035-0.103,0.053-0.154
	l1.785-4.979h0.027l1.785,4.846c0.025,0.072,0.057,0.147,0.092,0.231c0.037,0.084,0.055,0.158,0.055,0.222
	c0,0.045-0.016,0.078-0.047,0.1c-0.031,0.022-0.104,0.033-0.219,0.033v0.16H320v-0.16c-0.176,0-0.266-0.041-0.266-0.121
	c0-0.07,0.014-0.137,0.041-0.199c0.025-0.061,0.061-0.149,0.105-0.266l2.09-5.646c0.072-0.177,0.135-0.297,0.188-0.359
	s0.139-0.093,0.254-0.093v-0.159h-1.678v0.159c0.193,0,0.293,0.062,0.293,0.187c0,0.054-0.012,0.1-0.027,0.14
	c-0.018,0.041-0.035,0.092-0.053,0.154l-1.771,4.791h-0.025l-1.732-4.725c-0.027-0.07-0.053-0.142-0.08-0.208
	c-0.025-0.065-0.039-0.121-0.039-0.166c0-0.115,0.08-0.172,0.238-0.172v-0.16h-1.852v0.16c0.135,0,0.199,0.053,0.199,0.158
	c0,0.055-0.012,0.119-0.039,0.199l-1.785,5.072h-0.025l-1.797-4.818c-0.037-0.088-0.07-0.166-0.102-0.231
	c-0.029-0.067-0.047-0.127-0.047-0.182c0-0.062,0.021-0.109,0.061-0.146c0.041-0.037,0.117-0.053,0.232-0.053v-0.16h-1.746v0.16
	c0.125,0,0.221,0.035,0.281,0.111c0.063,0.075,0.119,0.188,0.172,0.339l2.131,5.672c0.02,0.062,0.041,0.132,0.068,0.205
	c0.027,0.076,0.039,0.146,0.039,0.207c0,0.054-0.012,0.093-0.039,0.113c-0.027,0.021-0.104,0.033-0.227,0.033v0.162H313.064z
	 M294.59,219.703h2.438l1.632,2.601c0.045,0.045,0.066,0.094,0.066,0.146c0,0.045-0.016,0.076-0.047,0.092
	c-0.029,0.021-0.104,0.027-0.221,0.027v0.16h1.918v-0.16c-0.133,0-0.227-0.023-0.285-0.066c-0.059-0.045-0.137-0.139-0.232-0.278
	l-1.68-2.597c0.664-0.09,1.143-0.299,1.436-0.627c0.291-0.328,0.438-0.771,0.438-1.33c0-0.631-0.189-1.11-0.57-1.445
	c-0.381-0.332-1.01-0.498-1.885-0.498h-4.448v0.16c0.125,0,0.209,0.027,0.254,0.086c0.045,0.057,0.066,0.135,0.066,0.231v6.043
	c0,0.099-0.021,0.176-0.066,0.234c-0.045,0.057-0.129,0.086-0.254,0.086v0.16h1.763v-0.16c-0.124,0-0.209-0.029-0.253-0.086
	c-0.045-0.06-0.067-0.135-0.067-0.232v-2.546H294.59z M294.59,218.789v-2.149h2.838c0.311,0,0.564,0.02,0.765,0.061
	c0.197,0.039,0.354,0.103,0.471,0.187c0.113,0.084,0.193,0.188,0.238,0.313c0.043,0.123,0.064,0.273,0.064,0.451
	c0,0.354-0.109,0.633-0.332,0.836c-0.221,0.203-0.6,0.305-1.139,0.305h-2.905V218.789z M284.592,215.862
	c-0.489,0.156-0.913,0.387-1.274,0.696c-0.359,0.307-0.639,0.682-0.84,1.127c-0.201,0.442-0.301,0.955-0.301,1.533
	c0,0.575,0.1,1.09,0.301,1.532c0.201,0.445,0.48,0.818,0.84,1.121c0.361,0.301,0.785,0.525,1.274,0.672
	c0.489,0.148,1.022,0.222,1.601,0.222c0.579,0,1.111-0.072,1.601-0.222c0.489-0.146,0.913-0.371,1.272-0.672
	c0.361-0.303,0.642-0.676,0.842-1.121c0.199-0.442,0.3-0.957,0.3-1.532c0-0.578-0.101-1.091-0.3-1.533
	c-0.2-0.445-0.48-0.82-0.842-1.127c-0.359-0.31-0.783-0.54-1.272-0.696c-0.489-0.154-1.022-0.232-1.601-0.232
	C285.614,215.63,285.081,215.708,284.592,215.862 M288.288,217.255c0.493,0.476,0.738,1.13,0.738,1.961
	c0,0.834-0.245,1.488-0.738,1.964c-0.492,0.475-1.191,0.711-2.096,0.711c-0.905,0-1.604-0.236-2.096-0.711
	c-0.494-0.476-0.74-1.13-0.74-1.964c0-0.831,0.246-1.485,0.74-1.961c0.491-0.475,1.19-0.713,2.096-0.713
	C287.097,216.542,287.796,216.781,288.288,217.255 M271.687,222.248c0,0.099-0.022,0.176-0.066,0.234
	c-0.045,0.057-0.129,0.086-0.253,0.086v0.16h4.373c0.541,0,1.017-0.088,1.429-0.26c0.412-0.175,0.758-0.414,1.037-0.728
	c0.279-0.311,0.488-0.68,0.631-1.111c0.143-0.43,0.213-0.897,0.213-1.403s-0.085-0.976-0.253-1.404s-0.405-0.801-0.711-1.111
	c-0.306-0.31-0.678-0.552-1.116-0.725c-0.438-0.174-0.933-0.26-1.481-0.26h-4.121v0.16c0.124,0,0.208,0.027,0.253,0.086
	c0.044,0.057,0.066,0.135,0.066,0.231L271.687,222.248L271.687,222.248z M272.81,221.853v-5.252h2.578
	c0.823,0,1.459,0.223,1.906,0.666c0.447,0.442,0.671,1.098,0.671,1.959c0,0.86-0.194,1.516-0.585,1.959
	c-0.39,0.444-0.974,0.668-1.754,0.668H272.81z M262.285,220.863h3.771l0.506,1.066c0.069,0.157,0.117,0.264,0.139,0.313
	s0.033,0.094,0.033,0.139c0,0.063-0.018,0.109-0.053,0.142c-0.035,0.032-0.106,0.047-0.214,0.047v0.16h1.853v-0.16
	c-0.08,0-0.143-0.004-0.188-0.014c-0.044-0.011-0.087-0.035-0.126-0.08c-0.04-0.043-0.083-0.111-0.127-0.199
	s-0.106-0.213-0.187-0.373l-2.557-5.297c-0.072-0.152-0.129-0.271-0.174-0.354c-0.044-0.084-0.066-0.152-0.066-0.207
	c0-0.105,0.071-0.158,0.213-0.158v-0.16h-1.944v0.16c0.16,0,0.24,0.053,0.24,0.158c0,0.044-0.019,0.104-0.054,0.18
	c-0.035,0.077-0.088,0.189-0.16,0.34l-2.41,5.377c-0.071,0.143-0.129,0.256-0.174,0.34s-0.084,0.15-0.119,0.193
	c-0.035,0.045-0.073,0.069-0.113,0.08c-0.04,0.01-0.087,0.014-0.141,0.014v0.16h1.639v-0.16c-0.15,0-0.227-0.049-0.227-0.146
	c0-0.055,0.022-0.129,0.067-0.227c0.044-0.098,0.084-0.187,0.119-0.266L262.285,220.863z M262.712,219.988l1.385-3.143l1.506,3.143
	H262.712z M251.084,220.529l-0.719,1.537l0.133,0.08c0.099-0.107,0.19-0.16,0.28-0.16c0.098,0,0.226,0.041,0.386,0.125
	s0.364,0.176,0.612,0.277c0.248,0.101,0.549,0.188,0.9,0.266c0.35,0.074,0.764,0.111,1.244,0.111c0.567,0,1.067-0.06,1.497-0.172
	c0.431-0.115,0.792-0.275,1.086-0.48c0.292-0.203,0.513-0.436,0.659-0.699c0.146-0.26,0.219-0.533,0.219-0.815
	c0-0.533-0.125-0.938-0.374-1.211c-0.249-0.275-0.565-0.476-0.948-0.601c-0.383-0.125-0.801-0.192-1.254-0.207
	c-0.455-0.012-0.892-0.02-1.31-0.02c-0.249,0-0.483-0.008-0.701-0.025c-0.218-0.017-0.409-0.057-0.573-0.115
	c-0.166-0.057-0.295-0.137-0.389-0.237c-0.093-0.103-0.141-0.236-0.141-0.406c0-0.373,0.213-0.674,0.637-0.904
	c0.424-0.229,0.998-0.346,1.721-0.346c0.321,0,0.618,0.029,0.891,0.086c0.272,0.059,0.507,0.129,0.703,0.213
	c0.196,0.086,0.349,0.172,0.455,0.26c0.107,0.09,0.162,0.164,0.162,0.228c0,0.09-0.006,0.146-0.015,0.174l0.147,0.092l0.731-1.539
	l-0.159-0.066c-0.045,0.045-0.089,0.086-0.134,0.119c-0.044,0.036-0.115,0.055-0.213,0.055c-0.089,0-0.2-0.025-0.333-0.078
	c-0.133-0.051-0.303-0.108-0.507-0.17c-0.205-0.061-0.448-0.117-0.728-0.168c-0.281-0.053-0.613-0.078-0.996-0.078
	c-0.49,0-0.945,0.053-1.363,0.16c-0.418,0.104-0.781,0.252-1.088,0.438c-0.309,0.187-0.551,0.41-0.729,0.67
	c-0.178,0.265-0.268,0.554-0.268,0.871c0,0.506,0.125,0.89,0.375,1.146c0.248,0.256,0.564,0.438,0.947,0.551
	c0.383,0.112,0.803,0.17,1.262,0.174s0.893,0.006,1.303,0.006c0.249,0,0.482,0.015,0.701,0.041c0.218,0.025,0.41,0.072,0.574,0.14
	c0.164,0.066,0.293,0.161,0.388,0.286c0.093,0.123,0.14,0.279,0.14,0.468c0,0.391-0.189,0.709-0.566,0.959
	c-0.379,0.248-0.989,0.373-1.834,0.373c-0.328,0-0.653-0.037-0.974-0.107c-0.319-0.072-0.606-0.162-0.86-0.272
	c-0.252-0.111-0.457-0.232-0.612-0.365c-0.156-0.135-0.233-0.265-0.233-0.388c0-0.055,0.014-0.11,0.039-0.174L251.084,220.529z
	 M240.679,220.529l-0.719,1.537l0.133,0.08c0.098-0.107,0.191-0.16,0.28-0.16c0.097,0,0.226,0.041,0.386,0.125
	c0.159,0.084,0.364,0.176,0.612,0.277c0.249,0.102,0.548,0.188,0.899,0.266c0.35,0.074,0.766,0.111,1.244,0.111
	c0.568,0,1.067-0.06,1.498-0.172c0.43-0.115,0.793-0.275,1.086-0.48c0.293-0.203,0.512-0.436,0.658-0.699
	c0.146-0.26,0.221-0.533,0.221-0.815c0-0.533-0.125-0.938-0.375-1.211c-0.25-0.275-0.565-0.476-0.948-0.601
	c-0.384-0.125-0.802-0.192-1.255-0.207c-0.455-0.012-0.891-0.02-1.309-0.02c-0.25,0-0.484-0.008-0.701-0.025
	c-0.219-0.018-0.41-0.057-0.574-0.115c-0.166-0.057-0.295-0.137-0.387-0.237c-0.095-0.103-0.141-0.236-0.141-0.406
	c0-0.373,0.212-0.674,0.636-0.904c0.425-0.229,0.997-0.346,1.722-0.346c0.32,0,0.617,0.029,0.89,0.086
	c0.272,0.059,0.507,0.129,0.703,0.213c0.196,0.086,0.348,0.172,0.454,0.26c0.107,0.09,0.162,0.164,0.162,0.228
	c0,0.09-0.004,0.146-0.014,0.174l0.146,0.092l0.732-1.539l-0.16-0.066c-0.045,0.045-0.088,0.086-0.133,0.119
	c-0.045,0.036-0.115,0.055-0.213,0.055c-0.089,0-0.199-0.025-0.334-0.078c-0.133-0.051-0.302-0.108-0.507-0.17
	c-0.205-0.061-0.446-0.117-0.728-0.168c-0.281-0.053-0.612-0.078-0.996-0.078c-0.489,0-0.943,0.053-1.362,0.16
	c-0.418,0.104-0.781,0.252-1.089,0.438c-0.307,0.187-0.551,0.41-0.729,0.67c-0.178,0.265-0.267,0.554-0.267,0.871
	c0,0.506,0.125,0.89,0.374,1.146c0.249,0.256,0.564,0.438,0.947,0.551c0.384,0.111,0.805,0.17,1.263,0.174
	c0.459,0.004,0.894,0.006,1.302,0.006c0.25,0,0.483,0.015,0.701,0.041c0.219,0.025,0.41,0.072,0.575,0.14
	c0.165,0.066,0.294,0.161,0.387,0.286c0.093,0.123,0.14,0.279,0.14,0.468c0,0.391-0.188,0.709-0.565,0.959
	c-0.378,0.248-0.99,0.373-1.834,0.373c-0.329,0-0.654-0.037-0.974-0.107c-0.319-0.072-0.606-0.162-0.859-0.272
	c-0.254-0.111-0.458-0.232-0.614-0.365c-0.155-0.135-0.233-0.265-0.233-0.388c0-0.055,0.014-0.11,0.041-0.174L240.679,220.529z
	 M231.069,220.863h3.769l0.507,1.066c0.07,0.157,0.116,0.264,0.139,0.313s0.033,0.094,0.033,0.139c0,0.063-0.018,0.109-0.053,0.142
	c-0.035,0.032-0.107,0.047-0.213,0.047v0.16h1.852v-0.16c-0.08,0-0.143-0.004-0.188-0.014c-0.044-0.011-0.086-0.035-0.126-0.08
	c-0.04-0.043-0.082-0.111-0.127-0.199c-0.044-0.088-0.106-0.213-0.187-0.373l-2.557-5.297c-0.07-0.152-0.129-0.271-0.173-0.354
	c-0.045-0.084-0.067-0.152-0.067-0.207c0-0.105,0.071-0.158,0.213-0.158v-0.16h-1.943v0.16c0.158,0,0.238,0.053,0.238,0.158
	c0,0.044-0.018,0.104-0.053,0.18c-0.035,0.077-0.089,0.189-0.16,0.34l-2.41,5.377c-0.071,0.143-0.129,0.256-0.174,0.34
	c-0.043,0.084-0.084,0.15-0.119,0.193c-0.035,0.045-0.073,0.069-0.113,0.08c-0.04,0.01-0.086,0.014-0.141,0.014v0.16h1.64v-0.16
	c-0.151,0-0.228-0.049-0.228-0.146c0-0.055,0.022-0.129,0.067-0.227c0.044-0.098,0.084-0.187,0.12-0.266L231.069,220.863z
	 M231.495,219.988l1.385-3.143l1.506,3.143H231.495z M220.183,221.777v-2.303h3.334c0.426,0,0.746,0.098,0.963,0.295
	c0.218,0.194,0.326,0.479,0.326,0.854s-0.108,0.66-0.326,0.857c-0.217,0.195-0.537,0.295-0.963,0.295L220.183,221.777
	L220.183,221.777z M220.183,218.523v-1.846h3.049c0.507,0,0.856,0.073,1.053,0.227c0.195,0.152,0.293,0.383,0.293,0.695
	c0,0.312-0.098,0.545-0.293,0.694c-0.196,0.152-0.546,0.229-1.053,0.229H220.183z M219.06,222.248c0,0.099-0.022,0.176-0.067,0.234
	c-0.044,0.057-0.128,0.086-0.253,0.086v0.16h4.488c0.933,0,1.603-0.181,2.012-0.533c0.408-0.355,0.613-0.857,0.613-1.506
	c0-0.437-0.103-0.805-0.307-1.111c-0.204-0.306-0.496-0.504-0.877-0.592v-0.027c0.371-0.098,0.629-0.272,0.773-0.524
	c0.146-0.252,0.219-0.554,0.219-0.898c0-0.258-0.042-0.494-0.126-0.711c-0.085-0.217-0.22-0.408-0.406-0.572
	c-0.187-0.166-0.428-0.293-0.725-0.386c-0.298-0.093-0.66-0.14-1.085-0.14h-4.58v0.16c0.125,0,0.209,0.027,0.253,0.086
	c0.045,0.057,0.067,0.135,0.067,0.231L219.06,222.248L219.06,222.248z M206.363,222.728h1.585v-0.16
	c-0.125,0-0.209-0.029-0.254-0.086c-0.045-0.06-0.063-0.137-0.053-0.234v-5.258l0.019-0.027l2.835,5.634l2.835-5.634l0.038,0.027
	v5.258c0,0.099-0.023,0.176-0.073,0.234c-0.049,0.057-0.149,0.086-0.299,0.086v0.16h1.868v-0.16c-0.151,0-0.251-0.029-0.301-0.086
	c-0.049-0.06-0.072-0.137-0.072-0.234v-6.043c0-0.098,0.023-0.176,0.072-0.231c0.05-0.059,0.149-0.086,0.301-0.086v-0.16h-2.385
	v0.16c0.123,0,0.211,0.014,0.259,0.045c0.049,0.031,0.073,0.068,0.073,0.113c0,0.026-0.006,0.055-0.02,0.08
	c-0.013,0.026-0.023,0.055-0.033,0.079l-2.252,4.26l-2.172-4.26c-0.036-0.044-0.054-0.094-0.054-0.146
	c0-0.115,0.102-0.172,0.307-0.172v-0.16h-2.252v0.16c0.151,0,0.251,0.027,0.3,0.086c0.049,0.057,0.073,0.135,0.073,0.231v6.043
	c0,0.099-0.022,0.176-0.067,0.234c-0.043,0.057-0.137,0.086-0.278,0.086L206.363,222.728L206.363,222.728z M197.099,220.863h3.77
	l0.506,1.066c0.07,0.157,0.118,0.264,0.141,0.313c0.021,0.049,0.032,0.094,0.032,0.139c0,0.063-0.018,0.109-0.053,0.142
	c-0.036,0.031-0.106,0.047-0.213,0.047v0.16h1.851v-0.16c-0.08,0-0.142-0.004-0.186-0.014c-0.045-0.011-0.088-0.035-0.127-0.08
	c-0.04-0.043-0.082-0.111-0.127-0.199s-0.106-0.213-0.187-0.373l-2.557-5.297c-0.071-0.152-0.13-0.271-0.173-0.354
	c-0.045-0.084-0.067-0.152-0.067-0.207c0-0.105,0.071-0.158,0.213-0.158v-0.16h-1.944v0.16c0.16,0,0.239,0.053,0.239,0.158
	c0,0.044-0.017,0.104-0.053,0.18c-0.035,0.077-0.089,0.189-0.159,0.34l-2.41,5.377c-0.072,0.143-0.13,0.256-0.175,0.34
	c-0.044,0.084-0.084,0.15-0.118,0.193c-0.037,0.045-0.074,0.069-0.115,0.08c-0.039,0.01-0.086,0.014-0.139,0.014v0.16h1.639v-0.16
	c-0.151,0-0.228-0.049-0.228-0.146c0-0.055,0.022-0.129,0.067-0.227c0.043-0.098,0.084-0.187,0.119-0.266L197.099,220.863z
	 M197.524,219.988l1.386-3.143l1.505,3.143H197.524z"/>
<rect x="273.646" y="123.451" fill="none" stroke="#FFFFFF" stroke-width="1.409" width="47.988" height="80.352"/>
<path fill="#FFFFFF" d="M287.902,150.183h4.481v-0.568c-0.399,0-0.599-0.115-0.599-0.347c0-0.189,0.104-0.505,0.315-0.947
	l1.137-2.242h7.703l1.199,2.336c0.168,0.337,0.252,0.611,0.252,0.821c0,0.127-0.063,0.222-0.188,0.285
	c-0.127,0.063-0.232,0.094-0.316,0.094v0.568h5.559v-0.568c-0.232-0.104-0.438-0.21-0.617-0.315
	c-0.178-0.104-0.32-0.273-0.426-0.505l-6.566-12.842c-0.146-0.273-0.258-0.494-0.332-0.663c-0.072-0.167-0.109-0.336-0.109-0.505
	c0-0.23,0.072-0.383,0.221-0.457c0.146-0.073,0.295-0.131,0.441-0.174v-0.568h-5.334v0.568c0.168,0.043,0.326,0.106,0.473,0.19
	c0.147,0.084,0.221,0.23,0.221,0.44c0,0.169-0.058,0.369-0.174,0.601c-0.115,0.231-0.247,0.483-0.395,0.757l-5.84,12.274
	c-0.147,0.294-0.301,0.558-0.457,0.788c-0.158,0.231-0.375,0.368-0.647,0.41v0.568H287.902z M294.185,143.734l2.968-5.872
	l2.651,5.872H294.185z"/>
<path fill="#FFFFFF" d="M288.644,157.267h-4.893v0.567c0.21,0.042,0.362,0.143,0.457,0.301c0.094,0.157,0.184,0.353,0.268,0.584
	l5.053,13.03c0.084,0.211,0.162,0.411,0.236,0.601c0.073,0.188,0.11,0.368,0.11,0.536c0,0.146-0.063,0.252-0.188,0.315
	c-0.127,0.063-0.254,0.094-0.379,0.094v0.568h4.894v-0.568c-0.275-0.084-0.411-0.295-0.411-0.631c0-0.21,0.158-0.725,0.473-1.546
	l3.441-9.119h0.063l3.632,9.309c0.168,0.379,0.289,0.674,0.361,0.884c0.074,0.21,0.111,0.399,0.111,0.568
	c0,0.146-0.068,0.263-0.205,0.347s-0.27,0.146-0.395,0.188v0.568h4.986v-0.568c-0.188,0-0.338-0.059-0.441-0.173
	c-0.105-0.116-0.158-0.247-0.158-0.395c0-0.168,0.049-0.378,0.143-0.631c0.096-0.252,0.205-0.547,0.332-0.884l4.545-12.054
	c0.148-0.378,0.279-0.694,0.396-0.946c0.115-0.252,0.289-0.379,0.52-0.379v-0.567h-4.672v0.567c0.148,0,0.275,0.059,0.379,0.173
	c0.105,0.116,0.158,0.237,0.158,0.363c0,0.253-0.074,0.537-0.221,0.853l-3.408,9.087h-0.064l-3.379-8.897
	c-0.211-0.505-0.314-0.863-0.314-1.073c0-0.126,0.031-0.24,0.096-0.347c0.063-0.104,0.168-0.158,0.316-0.158v-0.567h-5.4v0.567
	c0.274,0,0.41,0.2,0.41,0.601c0,0.104-0.017,0.226-0.047,0.362c-0.032,0.137-0.101,0.342-0.205,0.615l-3.347,8.897h-0.063
	l-3.379-8.771c-0.126-0.337-0.205-0.579-0.236-0.726c-0.031-0.147-0.048-0.273-0.048-0.378c0-0.4,0.158-0.601,0.474-0.601
	L288.644,157.267L288.644,157.267z"/>
<path fill="#FFFFFF" d="M307.066,194.209l-2.084-3.347l-0.443,0.254c0.084,0.105,0.127,0.232,0.127,0.378
	c0,0.274-0.205,0.563-0.615,0.868c-0.41,0.307-0.922,0.58-1.529,0.822c-0.611,0.242-1.285,0.44-2.021,0.599
	c-0.738,0.158-1.441,0.237-2.117,0.237c-0.883,0-1.729-0.127-2.54-0.379c-0.811-0.252-1.517-0.621-2.117-1.104
	c-0.6-0.482-1.077-1.079-1.436-1.785c-0.357-0.704-0.537-1.51-0.537-2.415c0-0.903,0.18-1.709,0.537-2.415
	c0.358-0.703,0.836-1.299,1.436-1.781c0.601-0.484,1.307-0.854,2.117-1.105c0.81-0.252,1.656-0.379,2.54-0.379
	c0.527,0,1.102,0.063,1.723,0.189c0.619,0.126,1.209,0.283,1.768,0.473c0.559,0.188,1.025,0.406,1.406,0.646
	c0.379,0.243,0.588,0.479,0.631,0.711c0.02,0.086,0.037,0.158,0.047,0.221c0.01,0.063,0.016,0.127,0.016,0.189l0.316,0.223
	l2.461-3.816l-0.473-0.379c-0.043,0.064-0.102,0.148-0.174,0.252c-0.074,0.105-0.162,0.158-0.27,0.158
	c-0.084,0-0.314-0.084-0.693-0.252c-0.381-0.168-0.895-0.347-1.549-0.535c-0.65-0.189-1.414-0.367-2.289-0.535
	c-0.871-0.167-1.846-0.251-2.92-0.251c-1.324,0-2.599,0.179-3.818,0.536c-1.221,0.357-2.301,0.893-3.236,1.607
	c-0.938,0.715-1.679,1.604-2.227,2.663c-0.547,1.062-0.819,2.286-0.819,3.675c0,1.406,0.272,2.637,0.819,3.688
	c0.548,1.051,1.289,1.929,2.227,2.633c0.936,0.704,2.016,1.225,3.236,1.561c1.22,0.338,2.494,0.504,3.818,0.504
	c1.014,0,1.98-0.114,2.906-0.344c0.926-0.23,1.752-0.502,2.479-0.818c0.725-0.313,1.324-0.596,1.799-0.848
	c0.475-0.25,0.771-0.377,0.898-0.377c0.064,0,0.121,0.006,0.176,0.016c0.053,0.011,0.109,0.016,0.174,0.016L307.066,194.209z"/>
</svg>
