<svg width="66" height="24" viewBox="0 0 66 24" fill="none" xmlns="http://www.w3.org/2000/svg">
<path d="M14.1182 14.5039H5.82715V23H0.685547V1.67188H14.9531V5.6416H5.82715V10.5488H14.1182V14.5039ZM22.0723 23H17.1211V7.15039H22.0723V23ZM16.8281 3.06348C16.8281 2.36035 17.082 1.78418 17.5898 1.33496C18.0977 0.885742 18.7568 0.661133 19.5674 0.661133C20.3779 0.661133 21.0371 0.885742 21.5449 1.33496C22.0527 1.78418 22.3066 2.36035 22.3066 3.06348C22.3066 3.7666 22.0527 4.34277 21.5449 4.79199C21.0371 5.24121 20.3779 5.46582 19.5674 5.46582C18.7568 5.46582 18.0977 5.24121 17.5898 4.79199C17.082 4.34277 16.8281 3.7666 16.8281 3.06348ZM30.334 23H25.3828V0.5H30.334V23ZM38.0537 7.15039L38.2148 9.01074C39.3379 7.5752 40.8467 6.85742 42.7412 6.85742C44.7432 6.85742 46.0957 7.65332 46.7988 9.24512C47.873 7.65332 49.4258 6.85742 51.457 6.85742C54.6699 6.85742 56.3203 8.80078 56.4082 12.6875V23H51.457V12.9951C51.457 12.1846 51.3203 11.5938 51.0469 11.2227C50.7734 10.8516 50.2754 10.666 49.5527 10.666C48.5762 10.666 47.8486 11.1006 47.3701 11.9697L47.3848 12.1748V23H42.4336V13.0244C42.4336 12.1943 42.3018 11.5938 42.0381 11.2227C41.7744 10.8516 41.2715 10.666 40.5293 10.666C39.582 10.666 38.8594 11.1006 38.3613 11.9697V23H33.4248V7.15039H38.0537ZM62.2822 18.21C63.0635 18.21 63.7129 18.4443 64.2305 18.9131C64.748 19.3721 65.0068 19.9629 65.0068 20.6855C65.0068 21.4082 64.748 22.0039 64.2305 22.4727C63.7129 22.9316 63.0635 23.1611 62.2822 23.1611C61.4912 23.1611 60.8369 22.9268 60.3193 22.458C59.8115 21.9893 59.5576 21.3984 59.5576 20.6855C59.5576 19.9727 59.8115 19.3818 60.3193 18.9131C60.8369 18.4443 61.4912 18.21 62.2822 18.21Z" fill="#5671F6"/>
</svg>
