<svg width="32" height="32" viewBox="0 0 32 32" fill="none" xmlns="http://www.w3.org/2000/svg">
<path d="M16.0001 9.59072C12.4533 9.59072 9.59077 12.4532 9.59077 16.0001C9.59077 19.547 12.4533 22.4095 16.0001 22.4095C19.547 22.4095 22.4095 19.547 22.4095 16.0001C22.4095 12.4532 19.547 9.59072 16.0001 9.59072ZM16.0001 20.1657C13.7064 20.1657 11.8345 18.2938 11.8345 16.0001C11.8345 13.7063 13.7064 11.8345 16.0001 11.8345C18.2939 11.8345 20.1658 13.7063 20.1658 16.0001C20.1658 18.2938 18.2939 20.1657 16.0001 20.1657ZM22.672 7.83447C21.8439 7.83447 21.1751 8.50322 21.1751 9.33135C21.1751 10.1595 21.8439 10.8282 22.672 10.8282C23.5001 10.8282 24.1689 10.1626 24.1689 9.33135C24.1691 9.13471 24.1306 8.93995 24.0555 8.75823C23.9803 8.57651 23.8701 8.4114 23.731 8.27235C23.592 8.1333 23.4269 8.02305 23.2451 7.94791C23.0634 7.87278 22.8687 7.83423 22.672 7.83447ZM28.4939 16.0001C28.4939 14.2751 28.5095 12.5657 28.4126 10.8438C28.3158 8.84385 27.8595 7.06885 26.397 5.60635C24.9314 4.14072 23.1595 3.6876 21.1595 3.59072C19.4345 3.49385 17.7251 3.50947 16.0033 3.50947C14.2783 3.50947 12.5689 3.49385 10.847 3.59072C8.84702 3.6876 7.07202 4.14385 5.60952 5.60635C4.1439 7.07197 3.69077 8.84385 3.5939 10.8438C3.49702 12.5688 3.51265 14.2782 3.51265 16.0001C3.51265 17.722 3.49702 19.4345 3.5939 21.1563C3.69077 23.1563 4.14702 24.9313 5.60952 26.3938C7.07515 27.8595 8.84702 28.3126 10.847 28.4095C12.572 28.5063 14.2814 28.4907 16.0033 28.4907C17.7283 28.4907 19.4376 28.5063 21.1595 28.4095C23.1595 28.3126 24.9345 27.8563 26.397 26.3938C27.8626 24.9282 28.3158 23.1563 28.4126 21.1563C28.5126 19.4345 28.4939 17.7251 28.4939 16.0001ZM25.7439 23.3688C25.5158 23.9376 25.2408 24.3626 24.8001 24.8001C24.3595 25.2407 23.9376 25.5157 23.3689 25.7438C21.7251 26.397 17.822 26.2501 16.0001 26.2501C14.1783 26.2501 10.272 26.397 8.62827 25.747C8.05952 25.5189 7.63452 25.2438 7.19702 24.8032C6.7564 24.3626 6.4814 23.9407 6.25327 23.372C5.60327 21.7251 5.75015 17.822 5.75015 16.0001C5.75015 14.1782 5.60327 10.272 6.25327 8.62822C6.4814 8.05947 6.7564 7.63447 7.19702 7.19697C7.63765 6.75947 8.05952 6.48135 8.62827 6.25322C10.272 5.60322 14.1783 5.7501 16.0001 5.7501C17.822 5.7501 21.7283 5.60322 23.372 6.25322C23.9408 6.48135 24.3658 6.75635 24.8033 7.19697C25.2439 7.6376 25.5189 8.05947 25.747 8.62822C26.397 10.272 26.2501 14.1782 26.2501 16.0001C26.2501 17.822 26.397 21.7251 25.7439 23.3688Z" fill="#FF002E"/>
</svg>
