<svg width="32" height="32" viewBox="0 0 32 32" fill="none" xmlns="http://www.w3.org/2000/svg">
<path d="M16 2C8.26875 2 2 8.26875 2 16C2 23.7313 8.26875 30 16 30C23.7313 30 30 23.7313 30 16C30 8.26875 23.7313 2 16 2ZM21.2188 21.8C19.95 22.9688 18.2188 23.6562 16.1531 23.6562C13.1625 23.6562 10.575 21.9406 9.31563 19.4406C8.79688 18.4062 8.5 17.2375 8.5 16C8.5 14.7625 8.79688 13.5938 9.31563 12.5594C10.575 10.0562 13.1625 8.34062 16.1531 8.34062C18.2156 8.34062 19.9469 9.1 21.275 10.3344L19.0812 12.5312C18.2875 11.7719 17.2781 11.3875 16.1562 11.3875C14.1625 11.3875 12.475 12.7344 11.8719 14.5437C11.7188 15.0031 11.6313 15.4937 11.6313 16C11.6313 16.5063 11.7188 16.9969 11.8719 17.4562C12.475 19.2656 14.1625 20.6125 16.1531 20.6125C17.1844 20.6125 18.0594 20.3406 18.7437 19.8813C19.5562 19.3375 20.0938 18.5281 20.2719 17.5688H16.1531V14.6062H23.3625C23.4531 15.1094 23.5 15.6313 23.5 16.1719C23.5 18.5063 22.6656 20.4656 21.2188 21.8Z" fill="#FF002E"/>
</svg>
