<svg width="22" height="20" viewBox="0 0 22 20" fill="none" xmlns="http://www.w3.org/2000/svg">
<path fill-rule="evenodd" clip-rule="evenodd" d="M11.6067 0.521392C11.9415 0.809721 11.9415 1.27719 11.6067 1.56552L1.81907 9.99508C1.48429 10.2834 0.941498 10.2834 0.606716 9.99508C0.271935 9.70675 0.271935 9.23928 0.606716 8.95095L10.3944 0.521392C10.7291 0.233064 11.2719 0.233064 11.6067 0.521392Z" fill="#262626"/>
<path fill-rule="evenodd" clip-rule="evenodd" d="M10.3933 0.521392C10.0585 0.809721 10.0585 1.27719 10.3933 1.56552L20.1809 9.99507C20.5157 10.2834 21.0585 10.2834 21.3933 9.99507C21.7281 9.70675 21.7281 9.23927 21.3933 8.95095L11.6056 0.521392C11.2709 0.233064 10.7281 0.233064 10.3933 0.521392Z" fill="#262626"/>
<path fill-rule="evenodd" clip-rule="evenodd" d="M11.8015 19.9998H10.2003C7.2003 19.9998 5.70032 19.9998 4.64886 19.2358C4.30928 18.9891 4.01065 18.6905 3.76393 18.3509C3 17.2994 3 15.7995 3 12.7998V11.4267C3 9.93243 3 9.18528 3.24996 8.51181C3.33245 8.28954 3.43455 8.07504 3.55503 7.87086C3.9201 7.25217 4.49998 6.78102 5.65973 5.83872L11 1.49976L16.3403 5.83872C17.5 6.78102 18.0799 7.25217 18.445 7.87086C18.5655 8.07504 18.6675 8.28954 18.75 8.51181C19 9.18528 19 9.93243 19 11.4267V12.7998C19 15.7995 19 17.2994 18.2361 18.3509C17.9893 18.6905 17.6907 18.9891 17.3511 19.2358C16.2997 19.9998 14.8003 19.9998 11.8015 19.9998ZM8.7 15.4419C8.3134 15.4419 8 15.7553 8 16.1419C8 16.5285 8.3134 16.8419 8.7 16.8419H12.8C13.1866 16.8419 13.5 16.5285 13.5 16.1419C13.5 15.7553 13.1866 15.4419 12.8 15.4419H8.7Z" fill="#262626"/>
</svg>
