<svg width="17" height="19" viewBox="0 0 17 19" fill="none" xmlns="http://www.w3.org/2000/svg">
<path d="M0.556372 14.3222C0.593027 13.9879 0.611355 13.8208 0.634307 13.7015C0.912864 12.2543 2.08346 11.2799 3.55725 11.2686C3.67869 11.2677 3.86829 11.2816 4.2475 11.3095C5.4253 11.3959 6.75203 11.4667 7.93844 11.4667C9.17673 11.4667 10.5499 11.3896 11.7437 11.298C12.1094 11.27 12.2923 11.256 12.4112 11.2563C13.8075 11.2601 14.9355 12.1264 15.2994 13.4745C15.3304 13.5893 15.36 13.748 15.4191 14.0653C15.4844 14.4153 15.517 14.5902 15.5298 14.7324C15.677 16.3759 14.4692 17.8298 12.8265 17.9865C12.6845 18 12.5065 18 12.1505 18L3.85292 18C3.52903 18 3.36708 18 3.23466 17.9882C1.663 17.8487 0.468063 16.5155 0.500662 14.938C0.503408 14.8051 0.521063 14.6441 0.556372 14.3222Z" fill="#262626"/>
<path fill-rule="evenodd" clip-rule="evenodd" d="M12.4098 11.7563C12.3163 11.756 12.1603 11.7676 11.7819 11.7966C10.5822 11.8885 9.19486 11.9667 7.93844 11.9667C6.73465 11.9667 5.39433 11.895 4.2109 11.8081C3.81857 11.7793 3.65655 11.7679 3.56108 11.7686C2.32554 11.7781 1.35881 12.5827 1.12529 13.7961C1.1072 13.89 1.09132 14.0307 1.05338 14.3767C1.01686 14.7097 1.00272 14.8433 1.00055 14.9483C0.973381 16.2629 1.96916 17.3739 3.27888 17.4902C3.38358 17.4995 3.51786 17.5 3.85291 17.5L12.1505 17.5C12.5188 17.5 12.6668 17.4994 12.7791 17.4887C14.148 17.3582 15.1544 16.1466 15.0318 14.777C15.0217 14.6647 14.9951 14.5191 14.9276 14.157C14.8664 13.8286 14.8411 13.6953 14.8166 13.6048C14.5115 12.4744 13.5807 11.7595 12.4098 11.7563ZM11.7435 10.7966C12.0737 10.7712 12.2735 10.7559 12.4125 10.7563C14.0343 10.7607 15.3595 11.7785 15.7821 13.3442C15.8183 13.4784 15.8512 13.6546 15.9048 13.942L15.9169 14.0073C15.9763 14.3252 16.0129 14.5216 16.0278 14.6878C16.1995 16.6052 14.7904 18.3014 12.874 18.4842C12.7079 18.5 12.5081 18.5 12.1849 18.5L3.822 18.5C3.52755 18.5 3.34522 18.5 3.19043 18.4863C1.35682 18.3235 -0.0372722 16.7681 0.000759833 14.9277C0.0039705 14.7723 0.0238562 14.5911 0.055971 14.2984C0.0570805 14.2883 0.0582046 14.278 0.0593431 14.2677C0.0605872 14.2563 0.0618132 14.2451 0.0630221 14.2341C0.0961876 13.9315 0.116474 13.7465 0.14331 13.607C0.466899 11.9258 1.84136 10.7818 3.55342 10.7687C3.69542 10.7676 3.90221 10.7828 4.24452 10.8079L4.28409 10.8108C5.45625 10.8968 6.76939 10.9667 7.93844 10.9667C9.15859 10.9667 10.5176 10.8906 11.7055 10.7995L11.7435 10.7966Z" fill="#262626"/>
<path d="M4.15302 4C4.15302 1.79086 5.94388 0 8.15302 0C10.3622 0 12.153 1.79086 12.153 4V4.57143C12.153 6.46498 10.618 8 8.72445 8H7.5816C5.68805 8 4.15302 6.46498 4.15302 4.57143V4Z" fill="#262626"/>
</svg>
