<svg width="19" height="19" viewBox="0 0 19 19" fill="none" xmlns="http://www.w3.org/2000/svg">
<path fill-rule="evenodd" clip-rule="evenodd" d="M0.406714 6.57735C0 7.52312 0 8.59319 0 10.7333V12.1296C0 14.958 0 16.3723 0.87868 17.2509C1.7364 18.1087 3.10441 18.1291 5.8 18.1296C5.86587 18.1296 5.93253 18.1296 6 18.1296H13C13.0675 18.1296 13.1341 18.1296 13.2 18.1296C15.8956 18.1291 17.2636 18.1087 18.1213 17.2509C19 16.3723 19 14.958 19 12.1296V10.7333C19 8.59319 19 7.52312 18.5933 6.57735C18.5339 6.43915 18.4682 6.3037 18.3966 6.17141C17.9063 5.26615 17.0664 4.60308 15.3866 3.27695C12.7163 1.16879 11.3811 0.114714 9.8339 0.0111611C9.61155 -0.00372036 9.38845 -0.00372036 9.1661 0.0111611C7.61888 0.114714 6.28372 1.16879 3.61338 3.27695C1.93362 4.60308 1.09373 5.26615 0.603435 6.17141C0.531788 6.3037 0.466147 6.43915 0.406714 6.57735ZM13.2 18.1296C13.2 17.6437 13.1043 17.1626 12.9184 16.7137C12.7324 16.2648 12.4599 15.8569 12.1163 15.5133C11.7727 15.1697 11.3648 14.8972 10.9159 14.7113C10.467 14.5253 9.98589 14.4296 9.5 14.4296C9.01411 14.4296 8.53298 14.5253 8.08407 14.7113C7.63517 14.8972 7.22728 15.1697 6.8837 15.5133C6.54013 15.8569 6.26759 16.2648 6.08165 16.7137C5.8957 17.1626 5.8 17.6437 5.8 18.1296H7.2C7.2 17.8276 7.25949 17.5285 7.37508 17.2494C7.49066 16.9704 7.66008 16.7168 7.87365 16.5033C8.08723 16.2897 8.34078 16.1203 8.61983 16.0047C8.89888 15.8891 9.19796 15.8296 9.5 15.8296C9.80204 15.8296 10.1011 15.8891 10.3802 16.0047C10.6592 16.1203 10.9128 16.2897 11.1263 16.5033C11.3399 16.7168 11.5093 16.9704 11.6249 17.2494C11.7405 17.5285 11.8 17.8276 11.8 18.1296H13.2Z" fill="white"/>
</svg>
