<svg width="18" height="20" viewBox="0 0 18 20" fill="none" xmlns="http://www.w3.org/2000/svg">
<path fill-rule="evenodd" clip-rule="evenodd" d="M13.2645 0.260555C12.4591 -0.220097 11.4364 -0.0154861 10.8331 0.702576L9.62662 2.13847C9.72393 2.18135 9.81291 2.24714 9.88497 2.33499L9.885 2.33503L9.88503 2.33506L9.88557 2.33572L9.88843 2.33919L9.90092 2.35428C9.91219 2.36787 9.92929 2.38837 9.95173 2.41505C9.99663 2.46843 10.0628 2.5464 10.1466 2.64298C10.3144 2.8364 10.5515 3.10313 10.828 3.39566C11.3923 3.99257 12.0798 4.65283 12.6644 5.03766C13.3121 5.46409 14.0387 5.91828 14.6056 6.26714C14.8885 6.44126 15.1307 6.58854 15.302 6.69221C15.3877 6.74403 15.4555 6.78493 15.5019 6.81282L15.5549 6.84461L15.5683 6.85269L15.5717 6.85469L15.5725 6.85516L15.5727 6.85527L15.5727 6.85529C15.6199 6.88353 15.6626 6.91646 15.7005 6.95312L16.7734 5.6762C17.3728 4.96286 17.4024 3.92817 16.7964 3.22047C16.3176 2.66135 15.7354 2.02846 15.2092 1.58637C14.6745 1.13709 13.9209 0.652305 13.2645 0.260555ZM15.0542 7.72233L15.2116 7.45917L15.0541 7.72243L15.0542 7.72233ZM14.8003 8.02453L14.7805 8.01264C14.7331 7.98413 14.6641 7.94253 14.5772 7.88997C14.4035 7.78485 14.1583 7.63574 13.8718 7.45946C13.2999 7.10751 12.5595 6.64482 11.8945 6.20698C11.1663 5.72755 10.386 4.96611 9.81063 4.35739C9.51732 4.04711 9.26662 3.76504 9.08907 3.56036C9.00019 3.4579 8.92935 3.3745 8.88037 3.31626C8.85587 3.28714 8.83681 3.26428 8.82368 3.24846L8.80847 3.23008L8.8043 3.22502L8.80309 3.22355L8.80271 3.22308L8.80257 3.22292C8.80252 3.22286 8.80247 3.2228 9.34375 2.77893L8.80247 3.2228C8.78785 3.20497 8.77426 3.18664 8.76169 3.16787L0.686871 12.7781C0.243764 13.3055 -0.00593233 13.9678 0.000107072 14.6566C0.013038 16.1313 0.096785 18.6569 0.513125 19.0067C0.929465 19.3565 3.43167 19.0038 4.88658 18.7623C5.5661 18.6496 6.17544 18.2895 6.61854 17.7621L14.8003 8.02453Z" fill="#262626"/>
</svg>
