<svg width="16" height="15" viewBox="0 0 16 15" fill="none" xmlns="http://www.w3.org/2000/svg">
<path fill-rule="evenodd" clip-rule="evenodd" d="M3.99922 2.29907C4.38582 2.29907 4.69922 2.61247 4.69922 2.99907L4.69922 12.9991C4.69922 13.3857 4.38582 13.6991 3.99922 13.6991C3.61262 13.6991 3.29922 13.3857 3.29922 12.9991L3.29922 2.99907C3.29922 2.61247 3.61262 2.29907 3.99922 2.29907Z" fill="#262626"/>
<path fill-rule="evenodd" clip-rule="evenodd" d="M12.0008 12.366C11.6142 12.366 11.3008 12.0526 11.3008 11.666L11.3008 1.66597C11.3008 1.27937 11.6142 0.965967 12.0008 0.965967C12.3874 0.965967 12.7008 1.27937 12.7008 1.66597L12.7008 11.666C12.7008 12.0526 12.3874 12.366 12.0008 12.366Z" fill="#262626"/>
<path fill-rule="evenodd" clip-rule="evenodd" d="M3.57661 14.2424C3.34229 14.0081 3.34229 13.6282 3.57661 13.3939L6.72808 10.2424C6.96239 10.0081 7.34229 10.0081 7.57661 10.2424C7.81092 10.4767 7.81092 10.8566 7.57661 11.0909L4.42514 14.2424C4.19082 14.4767 3.81092 14.4767 3.57661 14.2424Z" fill="#262626"/>
<path fill-rule="evenodd" clip-rule="evenodd" d="M12.4234 0.42388C12.6577 0.658195 12.6577 1.03809 12.4234 1.27241L9.27192 4.42388C9.03761 4.6582 8.65771 4.6582 8.42339 4.42388C8.18908 4.18957 8.18908 3.80967 8.42339 3.57535L11.5749 0.423881C11.8092 0.189566 12.1891 0.189566 12.4234 0.42388Z" fill="#262626"/>
<path fill-rule="evenodd" clip-rule="evenodd" d="M4.42339 14.2424C4.65771 14.0081 4.65771 13.6282 4.42339 13.3939L1.27192 10.2424C1.03761 10.0081 0.657707 10.0081 0.423392 10.2424C0.189078 10.4767 0.189078 10.8566 0.423392 11.0909L3.57486 14.2424C3.80918 14.4767 4.18908 14.4767 4.42339 14.2424Z" fill="#262626"/>
<path fill-rule="evenodd" clip-rule="evenodd" d="M11.5766 0.42388C11.3423 0.658195 11.3423 1.03809 11.5766 1.27241L14.7281 4.42388C14.9624 4.65819 15.3423 4.65819 15.5766 4.42388C15.8109 4.18957 15.8109 3.80967 15.5766 3.57535L12.4251 0.42388C12.1908 0.189566 11.8109 0.189566 11.5766 0.42388Z" fill="#262626"/>
</svg>
